<svg xmlns="http://www.w3.org/2000/svg" xmlns:xlink="http://www.w3.org/1999/xlink" width="150" zoomAndPan="magnify" viewBox="0 0 112.5 112.499997" height="150" preserveAspectRatio="xMidYMid meet" version="1.0"><defs><clipPath id="1314714c75"><path d="M 33 94 L 79 94 L 79 110.914062 L 33 110.914062 Z M 33 94 " clip-rule="nonzero"/></clipPath></defs><path fill="#231f20" d="M 38.933594 57.105469 C 37.554688 55.523438 36.085938 53.832031 34.601562 51.929688 C 23.699219 49.382812 18.074219 42.402344 14.214844 30.640625 C 6.371094 6.738281 14.425781 7.320312 20.910156 10.246094 C 20.78125 8.007812 20.699219 5.660156 20.671875 3.199219 C 12.527344 -1.085938 -1.960938 0.296875 7.066406 31.265625 C 15.78125 55.710938 28.695312 58.890625 40.816406 59.289062 C 40.226562 58.589844 39.597656 57.867188 38.933594 57.105469 " fill-opacity="1" fill-rule="nonzero"/><path fill="#231f20" d="M 87.996094 1.34375 L 23.789062 1.34375 C 23.761719 55.496094 49.730469 52.140625 49.527344 72.234375 L 55.894531 72.207031 L 62.257812 72.234375 C 62.054688 52.140625 88.023438 55.496094 87.996094 1.34375 " fill-opacity="1" fill-rule="nonzero"/><path fill="#231f20" d="M 91.113281 3.199219 C 91.085938 5.664062 91.003906 8.007812 90.875 10.246094 C 97.363281 7.320312 105.417969 6.738281 97.570312 30.640625 C 93.710938 42.402344 88.085938 49.382812 77.183594 51.929688 C 75.699219 53.832031 74.230469 55.523438 72.851562 57.105469 C 72.1875 57.867188 71.5625 58.589844 70.96875 59.289062 C 83.089844 58.890625 96.003906 55.710938 104.71875 31.265625 C 113.746094 0.296875 99.257812 -1.085938 91.113281 3.199219 " fill-opacity="1" fill-rule="nonzero"/><g clip-path="url(#1314714c75)"><path fill="#231f20" d="M 75.328125 94.980469 C 75.328125 94.886719 75.320312 94.792969 75.3125 94.699219 L 36.472656 94.699219 C 36.464844 94.792969 36.457031 94.886719 36.457031 94.980469 L 36.457031 104.460938 L 33.441406 110.902344 L 78.34375 110.902344 L 75.328125 104.460938 L 75.328125 94.980469 " fill-opacity="1" fill-rule="nonzero"/></g><path fill="#231f20" d="M 65.476562 85.125 L 62.257812 85.125 L 62.257812 75.367188 L 55.894531 75.335938 L 49.527344 75.367188 L 49.527344 85.125 L 46.3125 85.125 C 42.757812 85.125 39.875 88.011719 39.875 91.570312 L 71.910156 91.570312 C 71.910156 88.011719 69.03125 85.125 65.476562 85.125 " fill-opacity="1" fill-rule="nonzero"/></svg>