<svg width="150" height="155" viewBox="0 0 150 155" fill="none" xmlns="http://www.w3.org/2000/svg">
<path fill-rule="evenodd" clip-rule="evenodd" d="M69.0776 0C62.8707 0.401684 56.7155 1.431 50.7414 3.08795L62.1983 33.139C64.4741 32.6118 66.7759 32.2352 69.0776 31.9841V0ZM39.569 6.95416C33.8793 9.36427 28.4483 12.3267 23.431 15.8414L44.9741 40.3442C46.9138 39.114 48.9569 38.0094 51.0517 37.0052L39.569 6.95416V6.95416ZM80.9483 12.1258V32.0594C108.414 34.9465 129.181 57.0894 129.181 83.4499C129.181 112.02 104.922 135.167 75 135.167C45.0776 135.167 20.819 112.02 20.819 83.4499C20.819 76.2949 22.3707 69.2153 25.3965 62.6879L13.8103 56.3111L7.2931 52.7211C2.48276 62.3113 0 72.8053 0 83.4499C0 122.966 33.569 155 75 155C116.405 155 150 122.966 150 83.4499C149.974 46.1435 119.922 15.0883 80.9483 12.1258V12.1258ZM14.3276 23.0969C9.77586 27.2643 5.71552 31.8837 2.19828 36.8797L31.2672 52.7964C32.6897 50.9637 34.2155 49.2063 35.8707 47.5745L14.3276 23.0969ZM80.9483 44.0849V83.4499C80.9483 86.5881 78.2845 89.1237 75 89.1237C73.9655 89.1237 72.931 88.8727 72.0259 88.3706L36.2845 68.688C34.319 73.3827 33.3103 78.4038 33.3103 83.4499C33.3103 105.417 51.9828 123.242 75 123.242C98.0172 123.242 116.69 105.442 116.69 83.4499C116.69 63.667 101.457 46.8967 80.9483 44.0849V44.0849Z" fill="black"/>
</svg>
