<svg xmlns="http://www.w3.org/2000/svg" xmlns:xlink="http://www.w3.org/1999/xlink" width="1152" zoomAndPan="magnify" viewBox="0 0 864 299.999988" height="400" preserveAspectRatio="xMidYMid meet" version="1.0"><defs><g/><clipPath id="dc6e5d2388"><path d="M 13.324219 36 L 852.492188 36 L 852.492188 271.539062 L 13.324219 271.539062 Z M 13.324219 36 " clip-rule="nonzero"/></clipPath></defs><g clip-path="url(#dc6e5d2388)"><path fill="#1d1d1b" d="M 850.691406 263.433594 C 834.703125 236.195312 818.558594 209.054688 802.257812 182.003906 C 802.222656 181.945312 802.238281 181.867188 802.273438 181.847656 C 817.160156 173.238281 832.179688 164.816406 847.300781 156.613281 C 849.464844 155.441406 850.222656 152.703125 849.234375 149.625 C 848.246094 146.542969 845.761719 143.925781 842.90625 142.972656 C 804.4375 130.464844 765.773438 119.542969 726.441406 110.085938 C 729.339844 103.046875 733.785156 96.75 739.480469 91.753906 C 744.199219 87.621094 743.824219 83.347656 742.679688 80.480469 C 740.761719 75.679688 735.214844 71.625 728.183594 69.976562 C 532.335938 25.960938 333.480469 25.960938 137.636719 69.976562 C 132.230469 71.242188 125.160156 74.765625 122.988281 80.390625 C 122.257812 82.296875 121.585938 85.925781 125.226562 88.90625 C 132.015625 94.46875 137.113281 101.722656 140.144531 109.910156 C 100.550781 119.40625 61.628906 130.382812 22.914062 142.972656 C 20.054688 143.925781 17.574219 146.542969 16.582031 149.625 C 15.59375 152.703125 16.355469 155.445312 18.515625 156.613281 C 33.625 164.808594 48.636719 173.226562 63.519531 181.835938 C 63.578125 181.871094 63.597656 181.949219 63.550781 182.027344 C 47.253906 209.070312 31.113281 236.207031 15.128906 263.433594 C 13.589844 266.066406 13.34375 268.925781 14.492188 270.890625 C 15.644531 272.855469 17.953125 273.535156 20.527344 272.671875 C 80.386719 253.132812 140.851562 237.609375 202.734375 225.910156 C 204.960938 225.511719 207.144531 224.402344 208.921875 222.835938 C 208.957031 222.8125 208.988281 222.78125 209.023438 222.753906 C 209.097656 222.6875 209.183594 222.632812 209.257812 222.566406 C 211.941406 220.070312 213.601562 216.5625 213.601562 213.171875 C 213.601562 201.289062 213.601562 195.347656 213.601562 183.46875 C 359.769531 159.679688 506.058594 159.679688 652.222656 183.46875 C 652.222656 195.347656 652.222656 201.289062 652.222656 213.171875 C 652.222656 216.5625 653.847656 220.070312 656.53125 222.53125 C 656.609375 222.601562 656.695312 222.660156 656.773438 222.726562 C 656.820312 222.765625 656.867188 222.808594 656.917969 222.84375 C 658.71875 224.417969 660.886719 225.511719 663.089844 225.910156 C 724.96875 237.609375 785.4375 253.132812 845.296875 272.671875 C 847.871094 273.535156 850.183594 272.855469 851.332031 270.886719 C 852.476562 268.921875 852.234375 266.0625 850.691406 263.433594 Z M 850.691406 263.433594 " fill-opacity="1" fill-rule="nonzero"/></g><path fill="#ffffff" d="M 129.195312 81.558594 C 129.679688 80.304688 132.964844 77.867188 137.636719 76.773438 C 333.480469 32.757812 532.335938 32.757812 728.183594 76.773438 C 732.734375 77.835938 735.871094 80.136719 736.515625 81.742188 C 736.972656 82.894531 736.226562 84.441406 734.457031 85.996094 C 733.222656 87.082031 732.0625 88.242188 730.9375 89.433594 C 730.9375 89.375 730.9375 89.339844 730.9375 89.28125 C 711.859375 85.496094 692.824219 82.015625 673.640625 78.800781 C 692.054688 82.96875 710.320312 87.375 728.609375 92.058594 C 725.933594 95.292969 723.632812 98.839844 721.75 102.621094 C 710.957031 100.808594 705.550781 99.960938 694.71875 98.378906 C 705.015625 101.125 710.15625 102.550781 720.421875 105.507812 C 719.695312 107.203125 719.027344 108.921875 718.46875 110.6875 C 717.070312 115.125 716.199219 119.785156 715.859375 124.585938 C 711.039062 124.09375 708.625 123.855469 703.796875 123.410156 C 708.582031 125.011719 710.972656 125.824219 715.753906 127.472656 C 715.738281 128.054688 715.691406 128.628906 715.691406 129.210938 C 715.691406 132.058594 715.691406 133.484375 715.691406 136.332031 C 715.691406 137.050781 715.71875 137.773438 715.746094 138.496094 C 706.175781 136.953125 701.382812 136.230469 691.789062 134.871094 C 701.453125 137.449219 706.28125 138.78125 715.917969 141.542969 C 716.578125 149.9375 718.804688 158.546875 722.476562 167.039062 C 712.875 165.417969 708.066406 164.65625 698.4375 163.222656 C 708.679688 165.984375 713.792969 167.417969 724 170.390625 C 725.847656 174.25 727.996094 178.074219 730.417969 181.832031 C 712.207031 178.144531 703.066406 176.464844 684.746094 173.441406 C 700.867188 177.132812 716.953125 181.171875 732.902344 185.535156 C 733.800781 186.8125 734.722656 188.089844 735.6875 189.347656 C 736.371094 190.242188 736.75 191.019531 736.625 191.285156 C 736.464844 191.613281 735.988281 191.917969 735.296875 192.152344 C 735.285156 192.152344 735.273438 192.152344 735.265625 192.15625 C 735.03125 192.222656 734.914062 192.257812 734.683594 192.324219 C 733.183594 192.664062 730.933594 192.703125 728.179688 192.058594 C 532.335938 148.042969 333.480469 148.042969 137.632812 192.058594 C 135.59375 192.535156 133.863281 192.628906 132.488281 192.484375 C 131.515625 192.203125 131.03125 192.0625 130.058594 191.777344 C 129.707031 191.5625 129.4375 191.320312 129.300781 191.042969 C 128.847656 190.132812 129.574219 188.265625 131.277344 185.917969 C 147.207031 181.542969 163.269531 177.488281 179.367188 173.777344 C 161.128906 176.8125 152.03125 178.496094 133.902344 182.191406 C 136.441406 178.441406 138.699219 174.609375 140.667969 170.726562 C 151.332031 167.609375 156.675781 166.109375 167.375 163.222656 C 157.359375 164.714844 152.355469 165.507812 142.371094 167.199219 C 146.265625 158.703125 148.742188 150.011719 149.683594 141.496094 C 158.730469 138.902344 163.257812 137.648438 172.328125 135.21875 C 163.363281 136.5 158.882812 137.179688 149.941406 138.621094 C 150.054688 137.039062 150.125 135.464844 150.125 133.902344 C 150.125 131.238281 150.125 129.910156 150.125 127.246094 C 154.203125 125.839844 156.242188 125.148438 160.320312 123.773438 C 156.214844 124.160156 154.160156 124.363281 150.058594 124.785156 C 149.90625 119.945312 149.234375 115.1875 147.980469 110.648438 C 147.476562 108.820312 146.84375 107.042969 146.160156 105.292969 C 156.117188 102.429688 161.105469 101.046875 171.09375 98.382812 C 160.636719 99.90625 155.414062 100.722656 144.992188 102.46875 C 143.246094 98.636719 141.070312 95.035156 138.507812 91.71875 C 156.363281 87.160156 174.199219 82.867188 192.175781 78.800781 C 173.460938 81.933594 154.882812 85.320312 136.265625 88.996094 C 134.390625 86.863281 132.34375 84.863281 130.128906 83.042969 C 129.449219 82.480469 129.066406 81.886719 129.195312 81.558594 Z M 659.417969 216.070312 C 659.183594 215.515625 659.046875 214.9375 659.046875 214.359375 C 659.046875 204.269531 659.046875 199.222656 659.046875 189.132812 C 663.113281 198.558594 665.144531 203.28125 669.207031 212.742188 C 665.292969 214.058594 663.335938 214.722656 659.417969 216.070312 Z M 669.601562 212.605469 C 665.871094 201.5 664.003906 195.953125 660.273438 184.871094 C 665.460938 185.796875 668.054688 186.273438 673.234375 187.25 C 676.953125 195.664062 678.808594 199.882812 682.519531 208.324219 C 677.359375 210.011719 674.773438 210.867188 669.601562 212.605469 Z M 682.992188 208.171875 C 680.375 200.039062 679.066406 195.976562 676.449219 187.859375 C 681.683594 188.859375 684.296875 189.375 689.519531 190.429688 C 692.03125 195.875 693.285156 198.601562 695.792969 204.058594 C 690.675781 205.679688 688.117188 206.5 682.992188 208.171875 Z M 696.386719 203.871094 C 694.855469 198.738281 694.085938 196.175781 692.554688 191.046875 C 697.886719 192.136719 700.546875 192.695312 705.867188 193.84375 C 707.109375 196.285156 707.726562 197.507812 708.964844 199.953125 C 703.9375 201.496094 701.421875 202.277344 696.386719 203.871094 Z M 709.839844 199.6875 C 709.308594 197.578125 709.042969 196.523438 708.515625 194.417969 C 712.84375 195.359375 715.007812 195.839844 719.328125 196.820312 C 715.535156 197.953125 713.636719 198.523438 709.839844 199.6875 Z M 206.769531 214.359375 C 206.769531 214.933594 206.632812 215.511719 206.398438 216.066406 C 202.488281 214.707031 200.53125 214.039062 196.625 212.710938 C 200.679688 203.261719 202.710938 198.546875 206.769531 189.132812 C 206.769531 199.222656 206.769531 204.269531 206.769531 214.359375 Z M 146.839844 196.738281 C 151.023438 195.792969 153.113281 195.328125 157.300781 194.417969 C 156.785156 196.464844 156.527344 197.492188 156.015625 199.542969 C 152.339844 198.40625 150.503906 197.847656 146.839844 196.738281 Z M 159.945312 193.84375 C 165.265625 192.695312 167.929688 192.136719 173.261719 191.046875 C 171.742188 196.128906 170.980469 198.675781 169.460938 203.761719 C 164.4375 202.160156 161.929688 201.371094 156.917969 199.820312 C 158.128906 197.429688 158.734375 196.234375 159.945312 193.84375 Z M 176.296875 190.433594 C 181.519531 189.378906 184.132812 188.863281 189.367188 187.863281 C 186.757812 195.949219 185.453125 200 182.847656 208.101562 C 177.730469 206.417969 175.175781 205.589844 170.070312 203.957031 C 172.558594 198.542969 173.804688 195.835938 176.296875 190.433594 Z M 192.578125 187.25 C 197.761719 186.273438 200.355469 185.796875 205.542969 184.875 C 201.8125 195.941406 199.949219 201.480469 196.222656 212.574219 C 191.058594 210.820312 188.480469 209.957031 183.320312 208.257812 C 187.023438 199.84375 188.875 195.640625 192.578125 187.25 Z M 20.421875 265.714844 C 22.9375 261.433594 24.191406 259.296875 26.710938 255.03125 C 42.53125 249.222656 58.519531 243.734375 74.570312 238.601562 C 56.292969 243.230469 47.191406 245.71875 29.066406 251.035156 C 42.246094 228.808594 55.515625 206.648438 68.886719 184.539062 C 71.03125 181.035156 70.609375 177.023438 67.898438 175.402344 C 65.265625 173.875 63.945312 173.113281 61.316406 171.601562 C 74.253906 167.152344 80.742188 165.011719 93.753906 160.910156 C 79.351562 164.179688 72.167969 165.917969 57.851562 169.609375 C 52.226562 166.390625 49.417969 164.796875 43.808594 161.640625 C 67.003906 154.027344 90.269531 146.90625 113.757812 140.242188 C 89.089844 146.183594 64.644531 152.636719 40.257812 159.648438 C 33.257812 155.726562 29.761719 153.789062 22.785156 149.972656 C 22.835938 149.890625 22.859375 149.847656 22.910156 149.765625 C 62.242188 136.984375 101.777344 125.859375 142.007812 116.269531 C 142.886719 120.171875 143.351562 124.207031 143.351562 128.316406 C 143.351562 131.164062 143.351562 132.585938 143.351562 135.433594 C 143.613281 151.183594 135.589844 170.363281 126.332031 182.476562 C 121.585938 188.691406 121.992188 193.015625 123.136719 195.316406 C 123.703125 196.460938 124.625 197.355469 125.777344 198.042969 C 125.945312 198.171875 126.136719 198.28125 126.347656 198.363281 C 127.304688 198.835938 128.414062 199.160156 129.644531 199.34375 C 152.027344 205.808594 174.25 212.796875 196.308594 220.285156 C 136.640625 231.859375 78.289062 246.996094 20.519531 265.871094 C 20.484375 265.808594 20.464844 265.777344 20.421875 265.714844 Z M 845.292969 265.871094 C 787.542969 247 729.207031 231.867188 669.554688 220.292969 C 692.089844 212.871094 714.671875 205.691406 737.496094 199.191406 C 739.867188 198.667969 741.847656 197.53125 742.828125 195.476562 C 743.5625 193.933594 744.265625 190.46875 740.59375 185.863281 C 730.859375 173.660156 722.222656 154.027344 722.460938 137.867188 C 722.460938 135.015625 722.460938 133.59375 722.460938 130.746094 C 722.460938 125.785156 723.117188 120.976562 724.339844 116.390625 C 764.414062 125.964844 803.792969 137.054688 842.972656 149.796875 C 842.976562 149.878906 842.976562 149.917969 842.984375 150.003906 C 837.589844 152.953125 834.890625 154.445312 829.484375 157.457031 C 813.203125 152.75 796.769531 148.390625 780.296875 144.40625 C 795.542969 149.140625 810.730469 154.191406 825.777344 159.527344 C 818.625 163.53125 815.042969 165.558594 807.867188 169.671875 C 791.402344 165.15625 774.785156 160.996094 758.136719 157.21875 C 773.6875 161.6875 789.1875 166.480469 804.542969 171.578125 C 801.882812 173.105469 800.554688 173.875 797.890625 175.421875 C 795.203125 177.027344 794.785156 181.035156 796.921875 184.519531 C 808.496094 203.589844 819.972656 222.71875 831.347656 241.90625 C 813.265625 236.765625 795.199219 231.910156 776.976562 227.292969 C 795.757812 233.195312 814.363281 239.335938 832.96875 245.78125 C 832.96875 245.328125 832.96875 245.097656 832.96875 244.640625 C 837.945312 253.046875 840.433594 257.261719 845.394531 265.71875 C 846.457031 265.261719 846.984375 265.03125 848.046875 264.574219 C 846.945312 265.089844 846.394531 265.351562 845.292969 265.871094 Z M 845.292969 265.871094 " fill-opacity="1" fill-rule="nonzero"/><g fill="#459f6f" fill-opacity="1"><g transform="translate(181.766657, 150.72563)"><g><path d="M 32.46875 -4.3125 C 26.6875 -3.1875 21.300781 -3.535156 16.3125 -5.359375 C 11.320312 -7.191406 7.109375 -10.265625 3.671875 -14.578125 C 0.242188 -18.898438 -2.082031 -24.207031 -3.3125 -30.5 C -4.550781 -36.84375 -4.304688 -42.6875 -2.578125 -48.03125 C -0.847656 -53.382812 2.125 -57.867188 6.34375 -61.484375 C 10.5625 -65.109375 15.789062 -67.523438 22.03125 -68.734375 C 26.46875 -69.597656 30.703125 -69.5625 34.734375 -68.625 C 38.765625 -67.695312 42.367188 -66.015625 45.546875 -63.578125 C 48.734375 -61.140625 51.210938 -58.082031 52.984375 -54.40625 L 40.296875 -49.046875 C 38.765625 -51.835938 36.519531 -53.921875 33.5625 -55.296875 C 30.613281 -56.671875 27.507812 -57.039062 24.25 -56.40625 C 20.9375 -55.757812 18.148438 -54.34375 15.890625 -52.15625 C 13.628906 -49.96875 12.070312 -47.257812 11.21875 -44.03125 C 10.375 -40.800781 10.332031 -37.222656 11.09375 -33.296875 C 11.863281 -29.359375 13.359375 -26.03125 15.578125 -23.3125 C 17.796875 -20.601562 20.5 -18.671875 23.6875 -17.515625 C 26.882812 -16.359375 30.34375 -16.144531 34.0625 -16.875 C 37.257812 -17.488281 39.992188 -18.703125 42.265625 -20.515625 C 44.546875 -22.328125 46.234375 -24.535156 47.328125 -27.140625 C 48.421875 -29.753906 48.738281 -32.53125 48.28125 -35.46875 L 22.5 -30.4375 L 20.765625 -39.375 L 60.609375 -47.140625 L 67.234375 -13.09375 L 56.703125 -11.046875 L 53.0625 -22.140625 L 52.984375 -22.125 C 51.878906 -17.59375 49.503906 -13.75 45.859375 -10.59375 C 42.222656 -7.4375 37.757812 -5.34375 32.46875 -4.3125 Z M 32.46875 -4.3125 "/></g></g></g><g fill="#459f6f" fill-opacity="1"><g transform="translate(251.245546, 137.407433)"><g><path d="M 17.015625 -1.046875 C 12.472656 -0.421875 8.585938 -1.039062 5.359375 -2.90625 C 2.128906 -4.769531 0.253906 -7.570312 -0.265625 -11.3125 C -0.773438 -15.050781 0.410156 -18.414062 3.296875 -21.40625 C 6.179688 -24.40625 10.84375 -26.695312 17.28125 -28.28125 L 25.546875 -30.453125 C 26.554688 -30.703125 27.335938 -31.132812 27.890625 -31.75 C 28.441406 -32.375 28.65625 -33.140625 28.53125 -34.046875 C 28.269531 -35.921875 27.320312 -37.328125 25.6875 -38.265625 C 24.0625 -39.203125 22.082031 -39.507812 19.75 -39.1875 C 17.15625 -38.832031 15.117188 -37.726562 13.640625 -35.875 C 12.160156 -34.03125 11.453125 -32.007812 11.515625 -29.8125 L -1.4375 -30.03125 C -1.5625 -33.09375 -0.863281 -35.921875 0.65625 -38.515625 C 2.175781 -41.117188 4.429688 -43.304688 7.421875 -45.078125 C 10.410156 -46.847656 13.972656 -48.015625 18.109375 -48.578125 C 24.523438 -49.453125 29.847656 -48.578125 34.078125 -45.953125 C 38.304688 -43.328125 40.796875 -39.289062 41.546875 -33.84375 L 43.84375 -17.015625 C 44.132812 -14.898438 45.019531 -13.945312 46.5 -14.15625 C 47.738281 -14.320312 48.785156 -15.128906 49.640625 -16.578125 L 53.640625 -10.109375 C 52.503906 -8.628906 50.945312 -7.410156 48.96875 -6.453125 C 47 -5.492188 45.019531 -4.878906 43.03125 -4.609375 C 40.425781 -4.242188 38.09375 -4.640625 36.03125 -5.796875 C 33.96875 -6.953125 32.65625 -8.503906 32.09375 -10.453125 L 31.703125 -11.96875 L 31.625 -11.953125 C 30.570312 -9.160156 28.796875 -6.769531 26.296875 -4.78125 C 23.796875 -2.789062 20.703125 -1.546875 17.015625 -1.046875 Z M 20.71875 -10.625 C 23.78125 -11.039062 26.175781 -12.335938 27.90625 -14.515625 C 29.632812 -16.691406 30.296875 -19.25 29.890625 -22.1875 L 29.65625 -23.984375 L 21.4375 -21.90625 C 17.863281 -21.019531 15.4375 -19.9375 14.15625 -18.65625 C 12.882812 -17.382812 12.347656 -16.039062 12.546875 -14.625 C 12.742188 -13.15625 13.617188 -12.046875 15.171875 -11.296875 C 16.722656 -10.554688 18.570312 -10.332031 20.71875 -10.625 Z M 20.71875 -10.625 "/></g></g></g><g fill="#459f6f" fill-opacity="1"><g transform="translate(303.989502, 129.811085)"><g><path d="M 3.421875 -0.265625 L 0.03125 -44.09375 L 10.5625 -44.90625 L 13.140625 -37.09375 L 13.21875 -37.09375 C 14.195312 -40.09375 15.976562 -42.507812 18.5625 -44.34375 C 21.144531 -46.1875 24.117188 -47.238281 27.484375 -47.5 C 34.390625 -48.03125 39.054688 -45.179688 41.484375 -38.953125 L 41.578125 -38.953125 C 42.984375 -42.328125 45.019531 -44.90625 47.6875 -46.6875 C 50.363281 -48.476562 53.351562 -49.503906 56.65625 -49.765625 C 61 -50.097656 64.488281 -48.972656 67.125 -46.390625 C 69.769531 -43.816406 71.285156 -40.046875 71.671875 -35.078125 L 73.953125 -5.734375 L 60.84375 -4.71875 L 58.796875 -31.171875 C 58.609375 -33.554688 57.835938 -35.367188 56.484375 -36.609375 C 55.128906 -37.859375 53.367188 -38.398438 51.203125 -38.234375 C 48.453125 -38.023438 46.390625 -36.945312 45.015625 -35 C 43.648438 -33.050781 43.085938 -30.566406 43.328125 -27.546875 L 45.1875 -3.5 L 32.1875 -2.5 L 30.140625 -28.953125 C 29.953125 -31.335938 29.175781 -33.148438 27.8125 -34.390625 C 26.457031 -35.640625 24.664062 -36.175781 22.4375 -36 C 19.757812 -35.800781 17.734375 -34.726562 16.359375 -32.78125 C 14.984375 -30.832031 14.414062 -28.347656 14.65625 -25.328125 L 16.515625 -1.28125 Z M 3.421875 -0.265625 "/></g></g></g><g fill="#459f6f" fill-opacity="1"><g transform="translate(379.917329, 124.265411)"><g><path d="M 28.28125 1.140625 C 23.125 1.242188 18.550781 0.320312 14.5625 -1.625 C 10.570312 -3.570312 7.421875 -6.328125 5.109375 -9.890625 C 2.804688 -13.453125 1.609375 -17.582031 1.515625 -22.28125 C 1.421875 -26.914062 2.328125 -31.007812 4.234375 -34.5625 C 6.140625 -38.113281 8.859375 -40.910156 12.390625 -42.953125 C 15.929688 -45.003906 20.050781 -46.078125 24.75 -46.171875 C 29.320312 -46.265625 33.328125 -45.398438 36.765625 -43.578125 C 40.203125 -41.753906 42.910156 -39.191406 44.890625 -35.890625 C 46.878906 -32.585938 47.921875 -28.734375 48.015625 -24.328125 C 48.023438 -23.472656 47.984375 -22.597656 47.890625 -21.703125 C 47.796875 -20.816406 47.671875 -20.03125 47.515625 -19.34375 L 15.078125 -18.6875 C 15.535156 -15.550781 17 -13.046875 19.46875 -11.171875 C 21.945312 -9.296875 24.988281 -8.394531 28.59375 -8.46875 C 31.34375 -8.53125 33.90625 -9.144531 36.28125 -10.3125 C 38.65625 -11.476562 40.457031 -12.957031 41.6875 -14.75 L 49.265625 -9.15625 C 47.546875 -6.195312 44.804688 -3.765625 41.046875 -1.859375 C 37.285156 0.046875 33.03125 1.046875 28.28125 1.140625 Z M 14.828125 -26.234375 L 34.671875 -26.640625 C 34.378906 -29.890625 33.351562 -32.410156 31.59375 -34.203125 C 29.84375 -36.003906 27.625 -36.878906 24.9375 -36.828125 C 22.1875 -36.773438 19.898438 -35.769531 18.078125 -33.8125 C 16.253906 -31.863281 15.171875 -29.335938 14.828125 -26.234375 Z M 14.828125 -26.234375 "/></g></g></g><g fill="#459f6f" fill-opacity="1"><g transform="translate(430.319747, 123.486201)"><g/></g></g><g fill="#459f6f" fill-opacity="1"><g transform="translate(448.526826, 123.266436)"><g><path d="M 50.25 3.9375 C 47.226562 3.800781 44.742188 2.835938 42.796875 1.046875 C 40.847656 -0.734375 39.507812 -3.070312 38.78125 -5.96875 L 36.546875 -15.015625 C 36.117188 -16.867188 35.332031 -18.421875 34.1875 -19.671875 C 33.050781 -20.929688 31.59375 -21.609375 29.8125 -21.703125 L 20.484375 -22.140625 L 19.390625 0.921875 L 4.71875 0.21875 L 7.625 -60.84375 L 37.96875 -59.390625 C 45.238281 -59.046875 50.890625 -57.082031 54.921875 -53.5 C 58.960938 -49.925781 60.847656 -45.226562 60.578125 -39.40625 C 60.378906 -35.394531 58.9375 -31.976562 56.25 -29.15625 C 53.5625 -26.34375 49.910156 -24.472656 45.296875 -23.546875 L 45.296875 -23.453125 C 46.867188 -22.742188 48.082031 -21.765625 48.9375 -20.515625 C 49.789062 -19.273438 50.429688 -17.765625 50.859375 -15.984375 L 52.484375 -8.671875 C 52.734375 -7.734375 53.113281 -6.9375 53.625 -6.28125 C 54.132812 -5.625 54.847656 -5.273438 55.765625 -5.234375 C 56.566406 -5.203125 57.347656 -5.394531 58.109375 -5.8125 C 58.878906 -6.238281 59.570312 -6.8125 60.1875 -7.53125 L 62.921875 -0.453125 C 61.378906 0.960938 59.492188 2.078125 57.265625 2.890625 C 55.046875 3.710938 52.707031 4.0625 50.25 3.9375 Z M 20.96875 -32.1875 L 34.765625 -31.53125 C 38.015625 -31.375 40.648438 -32.015625 42.671875 -33.453125 C 44.691406 -34.898438 45.765625 -36.941406 45.890625 -39.578125 C 46.015625 -42.148438 45.140625 -44.265625 43.265625 -45.921875 C 41.390625 -47.585938 38.828125 -48.5 35.578125 -48.65625 L 21.78125 -49.3125 Z M 20.96875 -32.1875 "/></g></g></g><g fill="#459f6f" fill-opacity="1"><g transform="translate(510.646706, 126.365057)"><g><path d="M 17.484375 3.015625 C 12.984375 2.566406 9.578125 0.910156 7.265625 -1.953125 C 4.953125 -4.828125 4.023438 -8.601562 4.484375 -13.28125 L 7.453125 -43.421875 L 20.53125 -42.140625 L 17.96875 -16.015625 C 17.726562 -13.566406 18.191406 -11.546875 19.359375 -9.953125 C 20.523438 -8.367188 22.242188 -7.46875 24.515625 -7.25 C 27.359375 -6.96875 29.753906 -7.660156 31.703125 -9.328125 C 33.660156 -11.003906 34.785156 -13.328125 35.078125 -16.296875 L 37.453125 -40.46875 L 50.515625 -39.1875 L 46.21875 4.546875 L 35.203125 3.453125 L 34.015625 -4.6875 L 33.9375 -4.6875 C 32.039062 -1.882812 29.691406 0.179688 26.890625 1.515625 C 24.085938 2.859375 20.953125 3.359375 17.484375 3.015625 Z M 17.484375 3.015625 "/></g></g></g><g fill="#459f6f" fill-opacity="1"><g transform="translate(559.681627, 131.408653)"><g><path d="M 3.40625 0.4375 L 11.609375 -62.734375 L 24.625 -61.046875 L 16.421875 2.125 Z M 3.40625 0.4375 "/></g></g></g><g fill="#459f6f" fill-opacity="1"><g transform="translate(578.887619, 133.643687)"><g><path d="M 27.609375 6.21875 C 22.515625 5.394531 18.179688 3.664062 14.609375 1.03125 C 11.046875 -1.601562 8.445312 -4.878906 6.8125 -8.796875 C 5.1875 -12.710938 4.75 -16.992188 5.5 -21.640625 C 6.238281 -26.210938 7.863281 -30.078125 10.375 -33.234375 C 12.882812 -36.390625 16.066406 -38.65625 19.921875 -40.03125 C 23.773438 -41.40625 28.019531 -41.71875 32.65625 -40.96875 C 37.164062 -40.238281 40.953125 -38.664062 44.015625 -36.25 C 47.078125 -33.84375 49.285156 -30.832031 50.640625 -27.21875 C 51.992188 -23.601562 52.316406 -19.625 51.609375 -15.28125 C 51.472656 -14.4375 51.273438 -13.585938 51.015625 -12.734375 C 50.765625 -11.878906 50.5 -11.125 50.21875 -10.46875 L 18.1875 -15.671875 C 18.082031 -12.503906 19.078125 -9.773438 21.171875 -7.484375 C 23.265625 -5.191406 26.085938 -3.753906 29.640625 -3.171875 C 32.359375 -2.734375 34.992188 -2.875 37.546875 -3.59375 C 40.097656 -4.320312 42.132812 -5.460938 43.65625 -7.015625 L 50.125 -0.125 C 47.894531 2.457031 44.753906 4.347656 40.703125 5.546875 C 36.660156 6.753906 32.296875 6.976562 27.609375 6.21875 Z M 19.3125 -23.140625 L 38.90625 -19.953125 C 39.195312 -23.210938 38.640625 -25.882812 37.234375 -27.96875 C 35.828125 -30.050781 33.800781 -31.304688 31.15625 -31.734375 C 28.4375 -32.171875 26.003906 -31.59375 23.859375 -30 C 21.722656 -28.40625 20.207031 -26.117188 19.3125 -23.140625 Z M 19.3125 -23.140625 "/></g></g></g><g fill="#459f6f" fill-opacity="1"><g transform="translate(628.395472, 141.708855)"><g><path d="M 22.296875 6.1875 C 18.429688 5.394531 15.0625 4.101562 12.1875 2.3125 C 9.320312 0.519531 7.175781 -1.671875 5.75 -4.265625 C 4.320312 -6.867188 3.832031 -9.800781 4.28125 -13.0625 L 15.734375 -12 C 15.472656 -9.65625 16.191406 -7.585938 17.890625 -5.796875 C 19.597656 -4.003906 21.90625 -2.8125 24.8125 -2.21875 C 27.226562 -1.71875 29.375 -1.769531 31.25 -2.375 C 33.132812 -2.988281 34.226562 -4.023438 34.53125 -5.484375 C 34.800781 -6.765625 34.332031 -7.957031 33.125 -9.0625 C 31.914062 -10.164062 29.847656 -11.28125 26.921875 -12.40625 L 20.75 -14.71875 C 16.15625 -16.5 12.988281 -18.5625 11.25 -20.90625 C 9.507812 -23.25 9.003906 -26.1875 9.734375 -29.71875 C 10.640625 -34.082031 13.0625 -37.175781 17 -39 C 20.945312 -40.820312 25.664062 -41.164062 31.15625 -40.03125 C 34.570312 -39.320312 37.523438 -38.148438 40.015625 -36.515625 C 42.515625 -34.890625 44.421875 -32.945312 45.734375 -30.6875 C 47.054688 -28.425781 47.628906 -26 47.453125 -23.40625 L 36.1875 -24.078125 C 36.394531 -25.953125 35.828125 -27.597656 34.484375 -29.015625 C 33.148438 -30.429688 31.332031 -31.378906 29.03125 -31.859375 C 27.019531 -32.273438 25.242188 -32.160156 23.703125 -31.515625 C 22.160156 -30.878906 21.226562 -29.921875 20.90625 -28.640625 C 20.6875 -27.566406 21.078125 -26.546875 22.078125 -25.578125 C 23.078125 -24.617188 24.816406 -23.648438 27.296875 -22.671875 L 33.46875 -20.25 C 38.707031 -18.175781 42.332031 -15.863281 44.34375 -13.3125 C 46.363281 -10.769531 47.003906 -7.703125 46.265625 -4.109375 C 45.648438 -1.140625 44.234375 1.253906 42.015625 3.078125 C 39.796875 4.898438 36.988281 6.085938 33.59375 6.640625 C 30.207031 7.203125 26.441406 7.050781 22.296875 6.1875 Z M 22.296875 6.1875 "/></g></g></g></svg>