<svg width="382" height="381" viewBox="0 0 382 381" fill="none" xmlns="http://www.w3.org/2000/svg">
<path fill-rule="evenodd" clip-rule="evenodd" d="M190.532 53.1411C114.648 53.1411 53.1411 114.644 53.1411 190.5C53.1411 266.356 114.648 327.859 190.532 327.859C266.415 327.859 327.922 266.357 327.922 190.5C327.922 114.644 266.415 53.1411 190.532 53.1411ZM0 190.5C0 85.2849 85.3091 0 190.532 0C295.755 0 381.063 85.2851 381.063 190.5C381.063 295.715 295.755 381 190.532 381C85.3091 381 0 295.715 0 190.5Z" fill="black"/>
<path fill-rule="evenodd" clip-rule="evenodd" d="M191.061 84.8984C177.56 84.9099 164.186 87.5128 151.667 92.5657C163.804 92.8391 175.351 97.8519 183.838 106.531C192.325 115.21 197.077 126.867 197.076 139.004C197.074 151.32 192.18 163.131 183.47 171.839C174.759 180.548 162.946 185.441 150.628 185.443C138.308 185.444 126.492 180.552 117.779 171.844C109.067 163.135 104.17 151.322 104.168 139.004C104.171 135.696 104.527 132.397 105.231 129.164C92.4706 147.024 85.6018 168.42 85.582 190.37C85.5826 218.339 96.696 245.163 116.477 264.94C136.258 284.717 163.087 295.828 191.062 295.829C204.914 295.83 218.632 293.103 231.43 287.804C244.229 282.505 255.858 274.737 265.654 264.944C275.45 255.151 283.221 243.525 288.523 230.73C293.824 217.934 296.553 204.22 296.553 190.37C296.555 176.518 293.827 162.803 288.526 150.006C283.225 137.209 275.454 125.581 265.658 115.787C255.862 105.993 244.233 98.2242 231.433 92.9242C218.634 87.6243 204.915 84.8971 191.062 84.8984H191.061Z" fill="black"/>
</svg>
