<svg width="150" height="150" viewBox="0 0 150 150" fill="none" xmlns="http://www.w3.org/2000/svg">
<g clip-path="url(#clip0_1672_479)">
<path d="M137.311 87.0169C142.869 90.2257 142.869 95.4281 137.311 98.637L85.0667 128.8C79.5088 132.009 70.4975 132.009 64.9397 128.8L12.6956 98.637C7.13863 95.4282 7.13852 90.2256 12.6956 87.0169L12.8548 86.9241L64.9397 116.995C70.4974 120.204 79.5088 120.204 85.0667 116.995L137.151 86.9241L137.311 87.0169ZM137.311 70.0921C142.869 73.3009 142.869 78.5043 137.311 81.7132L85.0667 111.876C79.5087 115.085 70.4973 115.085 64.9397 111.876L12.6956 81.7132C7.13818 78.5044 7.1384 73.3009 12.6956 70.0921L13.1878 69.8069L64.9397 99.6858C70.4974 102.895 79.5087 102.894 85.0667 99.6858L136.818 69.8069L137.311 70.0921ZM64.9397 21.2776C70.4976 18.069 79.5089 18.0689 85.0667 21.2776L137.311 51.4407C142.868 54.6495 142.868 59.852 137.311 63.0608L85.0667 93.2239C79.5088 96.4327 70.4976 96.4327 64.9397 93.2239L12.6956 63.0608C7.13787 59.852 7.138 54.6495 12.6956 51.4407L64.9397 21.2776ZM69.384 82.4358L71.8147 83.8391V73.6028L71.9798 73.4671L77.7923 87.2903L80.7385 88.9915L73.5647 72.0774L79.3303 66.4846L76.2532 64.7083L71.8147 68.9798V62.1458L69.384 60.7425V82.4358ZM54.7083 73.9641L56.4934 74.9944C59.5463 76.7389 61.9266 77.1137 63.6331 76.1194C65.5034 75.0301 66.4386 72.9535 66.4387 69.8899C66.4386 66.835 65.5037 63.6774 63.6331 60.4192C61.9266 57.4546 59.5462 55.0817 56.4934 53.301L54.7083 52.2698V73.9641ZM57.1389 56.5344C59.0723 57.6507 60.658 59.2801 61.8948 61.4221C63.2881 63.8444 63.9845 66.1952 63.9846 68.4729C63.9846 70.7594 63.2879 72.3052 61.8948 73.1096C60.658 73.8328 59.0724 73.6361 57.1389 72.5198V56.5344ZM34.0081 62.011L36.4378 63.4143V47.7405L42.3206 62.8509L48.1799 54.5198V70.1936L50.6106 71.5969V49.9026L48.3919 48.6214L42.3206 57.2786L36.2268 41.5979L34.0081 40.3167V62.011Z" fill="black"/>
</g>
<defs>
<clipPath id="clip0_1672_479">
<rect width="150" height="150" fill="white"/>
</clipPath>
</defs>
</svg>
