<svg xmlns="http://www.w3.org/2000/svg" xmlns:xlink="http://www.w3.org/1999/xlink" width="1438" zoomAndPan="magnify" viewBox="0 0 1078.5 90.749999" height="121" preserveAspectRatio="xMidYMid meet" version="1.0"><defs><clipPath id="a8d316f10e"><path d="M 1.230469 0.101562 L 1076.769531 0.101562 L 1076.769531 90.5 L 1.230469 90.5 Z M 1.230469 0.101562 " clip-rule="nonzero"/></clipPath></defs><g clip-path="url(#a8d316f10e)"><path fill="#c1e4c3" d="M -16.5625 0.101562 L 1094.039062 0.101562 L 1094.039062 93.550781 L -16.5625 93.550781 Z M -16.5625 0.101562 " fill-opacity="1" fill-rule="nonzero"/><path fill="#c1e4c3" d="M -16.5625 0.101562 L 1094.039062 0.101562 L 1094.039062 93.550781 L -16.5625 93.550781 Z M -16.5625 0.101562 " fill-opacity="1" fill-rule="nonzero"/><path fill="#fcf6f0" d="M 1121.066406 -23.066406 L -38.957031 -23.066406 L -38.957031 107.457031 L -17.714844 107.457031 L -18.347656 79.523438 L 18.4375 66.25 C 55.21875 52.96875 128.78125 26.417969 202.621094 12.292969 C 276.464844 -1.828125 350.589844 -3.523438 424.996094 7.214844 C 449.796875 10.796875 474.628906 15.753906 499.460938 20.714844 C 549.128906 30.636719 598.792969 40.558594 648.210938 39.429688 C 682.433594 38.648438 716.542969 32.566406 750.648438 26.480469 C 790.40625 19.390625 830.164062 12.304688 870.109375 13.605469 C 944.339844 16.34375 1019.191406 47.285156 1056.632812 63.296875 L 1094.070312 79 L 1094.714844 107.457031 L 1121.066406 107.457031 Z M 1121.066406 -23.066406 " fill-opacity="1" fill-rule="evenodd"/></g></svg>