<svg xmlns="http://www.w3.org/2000/svg" xmlns:xlink="http://www.w3.org/1999/xlink" width="1438" zoomAndPan="magnify" viewBox="0 0 1078.5 90.749999" height="121" preserveAspectRatio="xMidYMid meet" version="1.0"><defs><clipPath id="b730327974"><path d="M 2.460938 0.0976562 L 1075.042969 0.0976562 L 1075.042969 90.351562 L 2.460938 90.351562 Z M 2.460938 0.0976562 " clip-rule="nonzero"/></clipPath><clipPath id="b7d2ad97fb"><path d="M 2.460938 0.0976562 L 1074.707031 0.0976562 L 1074.707031 90.351562 L 2.460938 90.351562 Z M 2.460938 0.0976562 " clip-rule="nonzero"/></clipPath></defs><g clip-path="url(#b730327974)"><path fill="#c1e4c3" d="M 2.460938 0.0976562 L 1075.042969 0.0976562 L 1075.042969 90.351562 L 2.460938 90.351562 Z M 2.460938 0.0976562 " fill-opacity="1" fill-rule="nonzero"/><path fill="#c1e4c3" d="M 2.460938 0.0976562 L 1075.042969 0.0976562 L 1075.042969 90.351562 L 2.460938 90.351562 Z M 2.460938 0.0976562 " fill-opacity="1" fill-rule="nonzero"/></g><g clip-path="url(#b7d2ad97fb)"><path fill="#fcf6f0" d="M 1101.148438 -22.277344 L -19.167969 -22.277344 L -19.167969 103.777344 L 1.34375 103.777344 L 0.738281 76.800781 L 36.261719 63.980469 C 71.785156 51.15625 142.828125 25.515625 214.140625 11.871094 C 285.457031 -1.765625 357.046875 -3.402344 428.902344 6.96875 C 452.855469 10.425781 476.835938 15.214844 500.820312 20.003906 C 548.785156 29.589844 596.75 39.171875 644.476562 38.082031 C 677.527344 37.324219 710.46875 31.449219 743.410156 25.574219 C 781.804688 18.726562 820.203125 11.882812 858.78125 13.140625 C 930.46875 15.785156 1002.757812 45.664062 1038.921875 61.128906 L 1075.074219 76.296875 L 1075.699219 103.777344 L 1101.148438 103.777344 Z M 1101.148438 -22.277344 " fill-opacity="1" fill-rule="evenodd"/></g></svg>